<svg xmlns="http://www.w3.org/2000/svg" width="86.066" height="71.843" viewBox="0 0 86.066 71.843">
  <g id="Group_21485" data-name="Group 21485" transform="translate(-43 -44)">
    <path id="Path_28979" data-name="Path 28979" d="M259.638,121.575H227.3v37.438h3.233v-34.2h29.1Z" transform="translate(-160.598 -77.575)" fill="#fff"/>
    <path id="Path_28980" data-name="Path 28980" d="M269.675,170.391H250.786v17.528h3.233V173.624h15.656Z" transform="translate(-177.612 -112.948)" fill="#e51240"/>
    <rect id="Rectangle_17709" data-name="Rectangle 17709" width="3.233" height="18.889" transform="translate(92.063 50.467) rotate(90)" fill="#e51240"/>
    <path id="Path_28981" data-name="Path 28981" d="M279.885,145.056v27.738h-29.1v3.233h32.333V145.056Z" transform="translate(-177.612 -94.59)" fill="#fff"/>
    <path id="Path_28982" data-name="Path 28982" d="M291.777,145.056v14.295H276.121v3.233H295.01V145.056Z" transform="translate(-195.97 -94.59)" fill="#fff"/>
    <rect id="Rectangle_17710" data-name="Rectangle 17710" width="3.233" height="18.889" transform="translate(80.15 74.971) rotate(-90)" fill="#fff"/>
    <rect id="Rectangle_17711" data-name="Rectangle 17711" width="3.362" height="3.362" transform="translate(102.144 44)" fill="#e51240"/>
    <g id="Group_21483" data-name="Group 21483" transform="translate(43.212 88.135)">
      <path id="Path_28983" data-name="Path 28983" d="M141.991,298.385v-8.669h11.245v1.141h-10.1v7.528Zm0-14.956v-1.141h11.245v1.141Z" transform="translate(-141.991 -282.163)" fill="#fff" stroke="#fff" stroke-miterlimit="10" stroke-width="0.25"/>
      <path id="Path_28984" data-name="Path 28984" d="M201.671,298.232a8.2,8.2,0,1,1,8.186-8.186A8.2,8.2,0,0,1,201.671,298.232Zm0-15.332a7.133,7.133,0,1,0,7.12,7.145A7.141,7.141,0,0,0,201.671,282.9Z" transform="translate(-179.304 -281.835)" fill="#fff" stroke="#fff" stroke-miterlimit="10" stroke-width="0.25"/>
      <path id="Path_28985" data-name="Path 28985" d="M272.288,298.613a6.8,6.8,0,0,1-4.86-2.078,7.108,7.108,0,0,1-2.014-4.944V282.38h1.14v9.211a5.845,5.845,0,0,0,11.69.005V282.38h1.14v9.211a7.115,7.115,0,0,1-7.1,7.022Z" transform="translate(-231.424 -282.23)" fill="#fff" stroke="#fff" stroke-miterlimit="10" stroke-width="0.25"/>
      <path id="Path_28986" data-name="Path 28986" d="M339.819,298.451l-5.3-13.927L329.2,298.451h-1.215l6.13-16.072h.787l6.13,16.072Z" transform="translate(-276.764 -282.23)" fill="#fff" stroke="#fff" stroke-miterlimit="10" stroke-width="0.25"/>
      <path id="Path_28987" data-name="Path 28987" d="M400.86,298.451l-10.7-13.754v13.754h-1.141V282.38h.758l10.722,13.75V282.38h1.141v16.072Z" transform="translate(-320.99 -282.23)" fill="#fff" stroke="#fff" stroke-miterlimit="10" stroke-width="0.25"/>
      <rect id="Rectangle_17712" data-name="Rectangle 17712" width="1.141" height="16.072" transform="translate(84.588 0.15)" fill="#fff" stroke="#fff" stroke-miterlimit="10" stroke-width="0.25"/>
    </g>
    <g id="Group_21484" data-name="Group 21484" transform="translate(43 107.822)">
      <path id="Path_28988" data-name="Path 28988" d="M141.224,360.318l.327-.642a3.873,3.873,0,0,0,2.6.958c1.476,0,2.118-.62,2.118-1.4,0-2.163-4.856-.834-4.856-3.752,0-1.16.9-2.163,2.907-2.163a4.453,4.453,0,0,1,2.445.7l-.282.665a4.059,4.059,0,0,0-2.163-.654c-1.442,0-2.084.642-2.084,1.431,0,2.163,4.856.856,4.856,3.729,0,1.16-.924,2.152-2.94,2.152A4.276,4.276,0,0,1,141.224,360.318Z" transform="translate(-141.224 -353.322)" fill="#e51240"/>
      <path id="Path_28989" data-name="Path 28989" d="M221.359,362.842a1.905,1.905,0,0,1-1.251.417,1.57,1.57,0,0,1-1.735-1.724v-3.583h-1.059v-.676h1.059v-1.3h.8v1.3h1.8v.676h-1.8v3.537a.949.949,0,0,0,1.025,1.082,1.325,1.325,0,0,0,.879-.3Z" transform="translate(-196.36 -355.249)" fill="#e51240"/>
      <path id="Path_28990" data-name="Path 28990" d="M286.492,363.53a3.014,3.014,0,1,1,3.019,3.019A2.915,2.915,0,0,1,286.492,363.53Zm5.216,0a2.2,2.2,0,1,0-2.2,2.309A2.161,2.161,0,0,0,291.708,363.53Z" transform="translate(-246.486 -358.539)" fill="#e51240"/>
      <path id="Path_28991" data-name="Path 28991" d="M369.456,360.522v.777c-.067,0-.135-.011-.192-.011a1.917,1.917,0,0,0-1.994,2.186v3.019h-.8v-5.926h.766v1.16A2.235,2.235,0,0,1,369.456,360.522Z" transform="translate(-304.438 -358.539)" fill="#e51240"/>
      <path id="Path_28992" data-name="Path 28992" d="M438.092,363.778h-4.957a2.194,2.194,0,0,0,2.332,2.062,2.336,2.336,0,0,0,1.814-.777l.451.518a3.133,3.133,0,0,1-5.4-2.05,2.854,2.854,0,0,1,2.9-3.008,2.824,2.824,0,0,1,2.873,3.008C438.1,363.6,438.092,363.688,438.092,363.778Zm-4.957-.6h4.2a2.105,2.105,0,0,0-4.2,0Z" transform="translate(-352.164 -358.539)" fill="#e51240"/>
    </g>
  </g>
</svg>
